<?xml version="1.0" encoding="utf-8"?>
<!-- Generator: Adobe Illustrator 26.0.2, SVG Export Plug-In . SVG Version: 6.00 Build 0)  -->
<svg version="1.1" id="Layer_1" xmlns="http://www.w3.org/2000/svg" xmlns:xlink="http://www.w3.org/1999/xlink" x="0px" y="0px"
	 viewBox="0 0 700 700" style="enable-background:new 0 0 700 700;" xml:space="preserve">
<style type="text/css">
	.st0{fill:#FFFCFC;}
</style>
<g>
	<path class="st0" d="M350,11.2c-41.4,0-78.8,3.8-107.1,10.4c-14.1,3.3-26.1,7.2-35.3,12.3S191,46,191,54.5c0,4.4,2.1,8.3,5.2,11.8
		c-7.6,9.4-8.6,21.2-8.6,32.9v377.2c0.1,10.7,10.2,11.9,18,15.1c2.2,8.7,7.2,16.5,13.8,22.7c9,8.4,20.8,14.6,34.3,19.5
		c27,9.9,61.5,14.8,96.1,15.1c34.6,0.4,69.1-3.7,96.1-12.7c13.5-4.5,25.3-10.2,34.3-17.9c8-6.9,13.8-16,15.1-26.5
		c8.4-3.3,16.8-5,17.1-15.3V100c0.1-13.5-1.7-23.5-8.6-33.8c3.2-3.5,5.1-7.4,5.1-11.8c0-8.5-7.2-15.5-16.4-20.6s-21-9-35.2-12.3
		C429,15,391.4,11.2,350,11.2L350,11.2z M350,30c39,0,74.3,3.8,98.7,9.5c11.5,3.6,33.2,6.6,33.4,14.9c-0.5,7.7-23.1,12.5-33.4,14.9
		C424.3,75,389,78.7,350,78.7s-74.3-3.7-98.7-9.3c-11.5-3.6-33.2-6.2-33.4-14.9c0.9-8.9,23.1-12.5,33.4-14.9
		C275.7,33.8,311,30,350,30z M299.6,38.8c-11.8,0-22.5,1.3-31,3.7c-8.4,2.4-15.6,6.6-15.6,12s7.1,9.4,15.6,11.8
		c8.4,2.4,19.1,3.7,31,3.7c11.8,0,22.5-1.3,31-3.7c8.4-2.4,15.6-6.4,15.6-11.8s-7.1-9.5-15.6-12C322.1,40.1,311.4,38.8,299.6,38.8z
		 M299.6,47.4c9.8,0,18.8,1.2,24.5,2.8s7.4,3.4,7.4,4.2s-1.6,2.4-7.4,4c-5.7,1.6-14.7,2.8-24.5,2.8s-18.8-1.2-24.5-2.8
		s-7.4-3.2-7.4-4s1.6-2.6,7.4-4.2C280.8,48.6,289.8,47.4,299.6,47.4z M214.9,78.4c7.9,3.4,17.4,6.3,28,8.8
		c33.4,7,77.8,10.4,112.5,10.4c-4.1,65,28.4,98.5,39.4,148.2c15.8,100.6,11.6,176.1-12.2,250.3c-57.8,4.4-119.5-4.7-172.6-27.6V99.1
		C209.7,91.2,211,84.1,214.9,78.4L214.9,78.4z M485.1,78.4c5.1,5.8,4.9,14.8,4.9,21.6v369c-16.3,7.9-34.2,14-53,18.6
		c18.3-111.1,6.4-156.7-31-253.1c-22-55.2-27.6-88.8-22.6-137.8c28.1-1.5,53.4-4.8,73.8-9.5C467.9,84.7,477.2,81.7,485.1,78.4
		L485.1,78.4z M460.4,505c-5.5,3.5-12.8,6.8-21.5,9.7c-23.4,7.8-56.1,11.9-88.7,11.6c-32.6-0.3-65.4-5.2-88.7-13.7
		c-5.8-2.1-11-4.5-15.4-7C316.4,524.5,397.6,523.8,460.4,505L460.4,505z"/>
</g>
</svg>
